# Simple humanoid base mesh
mtllib base-avatar.mtl
o base_avatar

# Vertices
v 0.000000 1.700000 0.000000  # Head top
v 0.000000 1.500000 0.100000  # Face front
v 0.100000 1.600000 0.000000  # Right temple
v -0.100000 1.600000 0.000000 # Left temple
v 0.000000 1.500000 -0.100000 # Back head
v 0.000000 1.400000 0.000000  # Neck
v 0.000000 1.200000 0.000000  # Shoulders
v 0.300000 1.200000 0.000000  # Right shoulder
v -0.300000 1.200000 0.000000 # Left shoulder
v 0.000000 0.800000 0.000000  # Torso

# Texture coordinates
vt 0.500000 1.000000
vt 0.500000 0.800000
vt 0.600000 0.900000
vt 0.400000 0.900000
vt 0.500000 0.700000

# Normals
vn 0.000000 1.000000 0.000000
vn 0.000000 0.000000 1.000000
vn 1.000000 0.000000 0.000000
vn -1.000000 0.000000 0.000000
vn 0.000000 0.000000 -1.000000

# Face definitions
f 1/1/1 2/2/2 3/3/3
f 1/1/1 3/3/3 5/5/5
f 1/1/1 5/5/5 4/4/4
f 1/1/1 4/4/4 2/2/2 